<svg xmlns="http://www.w3.org/2000/svg" width="27" height="27" viewBox="0 0 27 27">
  <g id="building_1" data-name="building 1" transform="translate(-0.376 -0.219)">
    <g id="Group" transform="translate(0 0)">
      <g id="Group-2" data-name="Group">
        <g id="Group-3" data-name="Group">
          <path id="Vector" d="M.45,27a.45.45,0,0,1,0-.9h2.7V11.249a.45.45,0,0,1,.45-.45H9.9V.45A.449.449,0,0,1,10.35,0h11.7a.45.45,0,0,1,.45.45V26.1h4.049a.45.45,0,1,1,0,.9Z" transform="translate(0.376 0.219)" fill="#84829a"/>
          <path id="Vector-2" data-name="Vector" d="M.448,3.586A.448.448,0,0,1,0,3.138V.448A.449.449,0,0,1,.448,0h2.69a.448.448,0,0,1,.448.448v2.69a.447.447,0,0,1-.448.448Z" transform="translate(11.961 5.869)" fill="#84829a"/>
          <path id="Vector-3" data-name="Vector" d="M.448,3.586A.448.448,0,0,1,0,3.138V.448A.449.449,0,0,1,.448,0h2.69a.448.448,0,0,1,.448.448v2.69a.447.447,0,0,1-.448.448Z" transform="translate(11.961 1.386)" fill="#84829a"/>
          <path id="Vector-4" data-name="Vector" d="M.448,3.586A.448.448,0,0,1,0,3.138V.448A.449.449,0,0,1,.448,0h2.69a.448.448,0,0,1,.448.448v2.69a.447.447,0,0,1-.448.448Z" transform="translate(16.444 5.869)" fill="#84829a"/>
          <path id="Vector-5" data-name="Vector" d="M.448,3.586A.448.448,0,0,1,0,3.138V.448A.449.449,0,0,1,.448,0h2.69a.448.448,0,0,1,.448.448v2.69a.447.447,0,0,1-.448.448Z" transform="translate(16.444 1.386)" fill="#84829a"/>
          <path id="Vector-6" data-name="Vector" d="M.448,3.586A.448.448,0,0,1,0,3.138V.448A.449.449,0,0,1,.448,0h2.69a.448.448,0,0,1,.448.448v2.69a.447.447,0,0,1-.448.448Z" transform="translate(16.444 10.352)" fill="#84829a"/>
          <path id="Vector-7" data-name="Vector" d="M.448,3.586A.448.448,0,0,1,0,3.138V.448A.449.449,0,0,1,.448,0h2.69a.448.448,0,0,1,.448.448v2.69a.447.447,0,0,1-.448.448Z" transform="translate(16.444 14.836)" fill="#84829a"/>
          <path id="Vector-8" data-name="Vector" d="M.448,3.586A.448.448,0,0,1,0,3.138V.448A.449.449,0,0,1,.448,0h2.69a.448.448,0,0,1,.448.448v2.69a.447.447,0,0,1-.448.448Z" transform="translate(5.236 16.629)" fill="#84829a"/>
          <path id="Vector-9" data-name="Vector" d="M.448,3.586A.448.448,0,0,1,0,3.138V.448A.449.449,0,0,1,.448,0h2.69a.448.448,0,0,1,.448.448v2.69a.447.447,0,0,1-.448.448Z" transform="translate(5.236 12.146)" fill="#84829a"/>
          <path id="Vector-10" data-name="Vector" d="M.448,3.586A.448.448,0,0,1,0,3.138V.448A.449.449,0,0,1,.448,0h2.69a.448.448,0,0,1,.448.448v2.69a.447.447,0,0,1-.448.448Z" transform="translate(5.236 21.112)" fill="#84829a"/>
          <path id="Vector-11" data-name="Vector" d="M.448,3.586A.448.448,0,0,1,0,3.138V.448A.449.449,0,0,1,.448,0h2.69a.448.448,0,0,1,.448.448v2.69a.447.447,0,0,1-.448.448Z" transform="translate(9.719 16.629)" fill="#84829a"/>
          <path id="Vector-12" data-name="Vector" d="M.448,3.586A.448.448,0,0,1,0,3.138V.448A.449.449,0,0,1,.448,0h2.69a.448.448,0,0,1,.448.448v2.69a.447.447,0,0,1-.448.448Z" transform="translate(9.719 12.146)" fill="#84829a"/>
          <path id="Vector-13" data-name="Vector" d="M.448,3.586A.448.448,0,0,1,0,3.138V.448A.449.449,0,0,1,.448,0h2.69a.448.448,0,0,1,.448.448v2.69a.447.447,0,0,1-.448.448Z" transform="translate(9.719 21.112)" fill="#84829a"/>
        </g>
      </g>
    </g>
  </g>
</svg>
