<svg xmlns="http://www.w3.org/2000/svg" width="44.739" height="30.83" viewBox="0 0 44.739 30.83">
  <g id="Group" transform="translate(0 0)">
    <path id="Vector" d="M2.718,0C1.217,0,0,.565,0,1.261s1.217,1.26,2.718,1.26a4.983,4.983,0,0,0,1.691-.273.589.589,0,0,0,.415-.534v-.9A.588.588,0,0,0,4.408.274,4.969,4.969,0,0,0,2.718,0Z" transform="translate(23.439 19.335) rotate(-32.505)" fill="#faa81a"/>
    <path id="Vector-2" data-name="Vector" d="M1.971,0C.883,0,0,.409,0,.913s.883.913,1.971.913a3.617,3.617,0,0,0,1.226-.2.427.427,0,0,0,.3-.387V.586A.426.426,0,0,0,3.2.2,3.6,3.6,0,0,0,1.971,0Z" transform="translate(21.545 8.718) rotate(-32.505)" fill="#faa81a"/>
    <path id="Vector-3" data-name="Vector" d="M2.943,0H.387A.36.36,0,0,0,0,.323a.276.276,0,0,0,.027.12l2.749,5.83H11.3L3.205.085A.431.431,0,0,0,2.943,0Z" transform="matrix(0.843, -0.537, 0.537, 0.843, 16.43, 9.331)" fill="#faa81a"/>
    <path id="Vector-4" data-name="Vector" d="M18.034,5.6,5.7,3.37,0,1.257V0L38.4.328a7.532,7.532,0,0,1,3.256.751,5.991,5.991,0,0,1,1.181.769,4.028,4.028,0,0,1,.8.88c.238.364.865.769.877,1.214,0,0-.407,1.761-3.321,1.657H18.034Z" transform="matrix(0.846, -0.533, 0.533, 0.846, 4.082, 23.715)" fill="#faa81a"/>
    <path id="Vector-5" data-name="Vector" d="M.184,6.988a.305.305,0,0,0-.119.466A.429.429,0,0,0,.4,7.608H2.957a4.223,4.223,0,0,0,1.428-.247L28.322,0l-14,.257Z" transform="matrix(0.844, -0.536, 0.536, 0.844, 10.258, 24.406)" fill="#faa81a"/>
    <path id="Vector-6" data-name="Vector" d="M2.632,0H.521A.484.484,0,0,0,0,.435.37.37,0,0,0,.025.569L2.324,6.5l6.186.053L3.056.182A.558.558,0,0,0,2.632,0Z" transform="matrix(0.843, -0.537, 0.537, 0.843, 0, 18.099)" fill="#faa81a"/>
    <path id="Vector-7" data-name="Vector" d="M.071,1.707a.1.1,0,0,0-.059.136A.127.127,0,0,0,.127,1.9H2.1A.146.146,0,0,0,2.143,1.9L7.947,0,4.293,0Z" transform="matrix(0.845, -0.535, 0.535, 0.845, 3.261, 25.088)" fill="#faa81a"/>
    <path id="Vector-8" data-name="Vector" d="M1.9,0A4.612,4.612,0,0,0,.04,1.329a.233.233,0,0,0,.113.346A.351.351,0,0,0,.3,1.708H3.937A4.166,4.166,0,0,0,3.114.8,6.176,6.176,0,0,0,1.9,0Z" transform="translate(36.747 4.438) rotate(-32.487)" fill="#faa81a"/>
    <path id="Vector-9" data-name="Vector" d="M2.371,0V3.612H0V0Z" transform="matrix(0.845, -0.534, 0.534, 0.845, 33.375, 6.793)" fill="#faa81a"/>
    <g id="Group-2" data-name="Group" transform="translate(15.276 7.669)">
      <path id="Vector-10" data-name="Vector" d="M0,.431V.817a.488.488,0,0,0,.535.416.481.481,0,0,0,.5-.416V.431A.48.48,0,0,0,.518,0h0A.481.481,0,0,0,0,.431Z" transform="translate(16.639 0.554) rotate(-32.353)" fill="#faa81a"/>
      <path id="Vector-11" data-name="Vector" d="M0,.431V.817a.488.488,0,0,0,.535.416.481.481,0,0,0,.5-.416V.431A.481.481,0,0,0,.518,0h0A.481.481,0,0,0,0,.431Z" transform="translate(14.975 1.587) rotate(-32.353)" fill="#faa81a"/>
      <path id="Vector-12" data-name="Vector" d="M0,.431V.817a.488.488,0,0,0,.535.416.481.481,0,0,0,.5-.416V.431A.481.481,0,0,0,.518,0h0A.481.481,0,0,0,0,.431Z" transform="matrix(0.845, -0.535, 0.535, 0.845, 13.311, 2.621)" fill="#faa81a"/>
      <path id="Vector-13" data-name="Vector" d="M0,.431V.817a.488.488,0,0,0,.535.416.481.481,0,0,0,.5-.416V.431A.481.481,0,0,0,.518,0h0A.481.481,0,0,0,0,.431Z" transform="translate(11.647 3.654) rotate(-32.353)" fill="#faa81a"/>
      <path id="Vector-14" data-name="Vector" d="M0,.431V.817a.48.48,0,0,0,.518.431A.48.48,0,0,0,1.036.817V.431A.48.48,0,0,0,.518,0h0A.481.481,0,0,0,0,.431Z" transform="matrix(0.845, -0.535, 0.535, 0.845, 9.983, 4.687)" fill="#faa81a"/>
      <path id="Vector-15" data-name="Vector" d="M0,.431V.817a.48.48,0,0,0,.518.431A.48.48,0,0,0,1.036.817V.431A.48.48,0,0,0,.518,0h0A.481.481,0,0,0,0,.431Z" transform="matrix(0.845, -0.535, 0.535, 0.845, 8.319, 5.72)" fill="#faa81a"/>
      <path id="Vector-16" data-name="Vector" d="M0,.431V.817a.481.481,0,0,0,.518.43.48.48,0,0,0,.517-.43V.431A.481.481,0,0,0,.518,0,.481.481,0,0,0,0,.431Z" transform="matrix(0.845, -0.535, 0.535, 0.845, 6.655, 6.754)" fill="#faa81a"/>
      <path id="Vector-17" data-name="Vector" d="M0,.431V.817a.481.481,0,0,0,.518.43.48.48,0,0,0,.517-.43V.431A.481.481,0,0,0,.518,0,.481.481,0,0,0,0,.431Z" transform="matrix(0.845, -0.535, 0.535, 0.845, 4.991, 7.787)" fill="#faa81a"/>
      <path id="Vector-18" data-name="Vector" d="M0,.431V.817a.481.481,0,0,0,.518.43.48.48,0,0,0,.517-.43V.431A.481.481,0,0,0,.518,0,.481.481,0,0,0,0,.431Z" transform="matrix(0.845, -0.535, 0.535, 0.845, 3.328, 8.82)" fill="#faa81a"/>
      <path id="Vector-19" data-name="Vector" d="M0,.431H0V.817a.481.481,0,0,0,.518.43.48.48,0,0,0,.517-.43V.431A.481.481,0,0,0,.518,0,.48.48,0,0,0,0,.431Z" transform="matrix(0.845, -0.535, 0.535, 0.845, 1.663, 9.854)" fill="#faa81a"/>
      <path id="Vector-20" data-name="Vector" d="M0,.431H0V.817a.481.481,0,0,0,.518.43.48.48,0,0,0,.517-.43V.431A.481.481,0,0,0,.518,0,.48.48,0,0,0,0,.431Z" transform="matrix(0.845, -0.535, 0.535, 0.845, 0, 10.887)" fill="#faa81a"/>
    </g>
  </g>
</svg>
